<mxfile host="app.diagrams.net" modified="2022-06-15T03:43:05.016Z" agent="5.0 (Windows NT 10.0; Win64; x64) AppleWebKit/537.36 (KHTML, like Gecko) Chrome/102.0.5005.63 Safari/537.36 Edg/102.0.1245.39" etag="ybA_rUKQIivJGz2iTjx-" version="20.0.1" type="github">
  <diagram id="mEZS4y3rniQXDqQQ1Pdy" name="Page-1">
    <mxGraphModel dx="1038" dy="579" grid="1" gridSize="10" guides="1" tooltips="1" connect="1" arrows="1" fold="1" page="1" pageScale="1" pageWidth="827" pageHeight="1169" math="0" shadow="0">
      <root>
        <mxCell id="0" />
        <mxCell id="1" parent="0" />
        <mxCell id="WMqWO3frrPSlVoMDKws3-1" value="&lt;font size=&quot;1&quot; style=&quot;line-height: 1.2;&quot;&gt;&lt;b style=&quot;font-size: 30px;&quot;&gt;LAN１&lt;/b&gt;&lt;/font&gt;" style="ellipse;shape=cloud;whiteSpace=wrap;html=1;" parent="1" vertex="1">
          <mxGeometry x="20" y="80" width="340" height="260" as="geometry" />
        </mxCell>
        <mxCell id="WMqWO3frrPSlVoMDKws3-2" value="&lt;b&gt;&lt;font style=&quot;font-size: 16px;&quot;&gt;DOMAIN０&lt;/font&gt;&lt;/b&gt;" style="ellipse;whiteSpace=wrap;html=1;fillColor=#dae8fc;strokeColor=#6c8ebf;" parent="1" vertex="1">
          <mxGeometry x="120" y="80" width="120" height="80" as="geometry" />
        </mxCell>
        <mxCell id="WMqWO3frrPSlVoMDKws3-3" value="&lt;span style=&quot;&quot;&gt;&lt;font style=&quot;font-size: 17px;&quot;&gt;&lt;b&gt;DOMAIN０&lt;/b&gt;&lt;/font&gt;&lt;/span&gt;" style="ellipse;whiteSpace=wrap;html=1;fillColor=#d5e8d4;strokeColor=#82b366;" parent="1" vertex="1">
          <mxGeometry x="120" y="270" width="120" height="80" as="geometry" />
        </mxCell>
        <mxCell id="WMqWO3frrPSlVoMDKws3-4" value="&lt;b&gt;&lt;font style=&quot;font-size: 16px;&quot;&gt;DDS　ROUTER&lt;/font&gt;&lt;/b&gt;" style="rounded=1;whiteSpace=wrap;html=1;fillColor=#ffe6cc;strokeColor=#d79b00;" parent="1" vertex="1">
          <mxGeometry x="280" y="180" width="120" height="60" as="geometry" />
        </mxCell>
        <mxCell id="WMqWO3frrPSlVoMDKws3-5" value="&lt;font size=&quot;1&quot; style=&quot;line-height: 1.2;&quot;&gt;&lt;b style=&quot;font-size: 30px;&quot;&gt;LAN２&lt;/b&gt;&lt;/font&gt;" style="ellipse;shape=cloud;whiteSpace=wrap;html=1;" parent="1" vertex="1">
          <mxGeometry x="580" y="100" width="330" height="260" as="geometry" />
        </mxCell>
        <mxCell id="WMqWO3frrPSlVoMDKws3-6" value="&lt;b&gt;&lt;font style=&quot;font-size: 16px;&quot;&gt;DOMAIN１&lt;/font&gt;&lt;/b&gt;" style="ellipse;whiteSpace=wrap;html=1;fillColor=#dae8fc;strokeColor=#6c8ebf;" parent="1" vertex="1">
          <mxGeometry x="740" y="100" width="120" height="80" as="geometry" />
        </mxCell>
        <mxCell id="WMqWO3frrPSlVoMDKws3-7" value="&lt;span style=&quot;&quot;&gt;&lt;font style=&quot;font-size: 17px;&quot;&gt;&lt;b&gt;DOMAIN１&lt;/b&gt;&lt;/font&gt;&lt;/span&gt;" style="ellipse;whiteSpace=wrap;html=1;fillColor=#d5e8d4;strokeColor=#82b366;" parent="1" vertex="1">
          <mxGeometry x="630" y="290" width="120" height="80" as="geometry" />
        </mxCell>
        <mxCell id="WMqWO3frrPSlVoMDKws3-8" value="&lt;b&gt;&lt;font style=&quot;font-size: 16px;&quot;&gt;DDS　ROUTER&lt;/font&gt;&lt;/b&gt;" style="rounded=1;whiteSpace=wrap;html=1;fillColor=#ffe6cc;strokeColor=#d79b00;" parent="1" vertex="1">
          <mxGeometry x="550" y="180" width="120" height="60" as="geometry" />
        </mxCell>
        <mxCell id="WMqWO3frrPSlVoMDKws3-10" value="" style="shape=flexArrow;endArrow=classic;startArrow=classic;html=1;rounded=0;fontSize=16;entryX=0;entryY=0.5;entryDx=0;entryDy=0;exitX=1;exitY=0.5;exitDx=0;exitDy=0;fillColor=#d80073;strokeColor=#A50040;" parent="1" source="WMqWO3frrPSlVoMDKws3-4" target="WMqWO3frrPSlVoMDKws3-8" edge="1">
          <mxGeometry width="100" height="100" relative="1" as="geometry">
            <mxPoint x="360" y="320" as="sourcePoint" />
            <mxPoint x="460" y="220" as="targetPoint" />
          </mxGeometry>
        </mxCell>
      </root>
    </mxGraphModel>
  </diagram>
</mxfile>
